<svg xmlns="http://www.w3.org/2000/svg" xmlns:xlink="http://www.w3.org/1999/xlink" viewBox="0 0 96.44 83.52"><defs><style>.cls-1{stroke:#fff;fill:url(#linear-gradient);}.cls-1,.cls-4{stroke-miterlimit:10;}.cls-2{fill:#393e46;}.cls-3{fill:#efeeee;}.cls-4{fill:none;stroke:#393e46;stroke-linecap:round;stroke-width:3px;}</style><linearGradient id="linear-gradient" x1="0.58" y1="41.76" x2="95.86" y2="41.76" gradientUnits="userSpaceOnUse"><stop offset="0" stop-color="#fbfcfc"/><stop offset="0.41" stop-color="#f5f6f6"/><stop offset="0.96" stop-color="#e5e4e4"/><stop offset="1" stop-color="#e4e3e3"/></linearGradient></defs><g id="Layer_2" data-name="Layer 2"><g id="_05_buttons" data-name="05 buttons"><polygon class="cls-1" points="24.4 83.02 0.58 41.76 24.4 0.5 72.04 0.5 95.86 41.76 72.04 83.02 24.4 83.02"/><path class="cls-2" d="M61.59,10a2.39,2.39,0,1,1,4.75,0,2.39,2.39,0,1,1-4.75,0Zm3.86,0c0-1.14-.55-2-1.49-2s-1.48.83-1.48,2S63,12,64,12,65.45,11.15,65.45,10Z"/><path class="cls-2" d="M68.66,12.58V8.26h0l-1.43.66L67,8.22l1.73-.77h.77v5.13Z"/><rect class="cls-2" x="32.71" y="39.86" width="3.33" height="7.04" rx="1.61"/><path class="cls-2" d="M64.91,37.29A12.34,12.34,0,1,1,52.57,25,12.34,12.34,0,0,1,64.91,37.29Z"/><path class="cls-3" d="M50.81,29.07H56.1a1.83,1.83,0,0,1,1.18.37,1.81,1.81,0,0,1,.58.81V35l-5.29,1.77h1.77v3.52H50.81v-4.7l3.53-1.18V30.84H52.57v2.35L49,34.36V30.25a1,1,0,0,1,.52-.83A2.21,2.21,0,0,1,50.81,29.07Zm0,12.94h3.53v3.53H50.81Z"/><path class="cls-4" d="M60.5,73.57v-11s9-16.57,9-22.71C69.48,29,62,19.27,46.8,19.67a16,16,0,0,0-6.19,1.21c-5.6,2.77-11.25,6.78-14.09,18v3.56a14.94,14.94,0,0,1-2,4.39l-3.17,6.28s-.31,3.63,2.95,3.71h1.74v5.82a5.34,5.34,0,0,0,5.6,4.84h3.71v6.09"/></g></g></svg>