<svg xmlns="http://www.w3.org/2000/svg" xmlns:xlink="http://www.w3.org/1999/xlink" viewBox="0 0 96.44 83.65"><defs><style>.cls-1,.cls-5{stroke:#fff;}.cls-1,.cls-4,.cls-5{stroke-miterlimit:10;}.cls-1{fill:url(#linear-gradient);}.cls-2{fill:#393e46;}.cls-3{fill:#efeeee;}.cls-4{fill:none;stroke:#393e46;stroke-linecap:round;stroke-width:3px;}.cls-5{fill:#222a31;opacity:0.3;}.cls-6{fill:#fff;}</style><linearGradient id="linear-gradient" x1="0.58" y1="41.9" x2="95.86" y2="41.9" gradientUnits="userSpaceOnUse"><stop offset="0" stop-color="#fbfcfc"/><stop offset="0.41" stop-color="#f5f6f6"/><stop offset="0.96" stop-color="#e5e4e4"/><stop offset="1" stop-color="#e4e3e3"/></linearGradient></defs><g id="Layer_2" data-name="Layer 2"><g id="_05_buttons" data-name="05 buttons"><polygon class="cls-1" points="24.4 83.15 0.58 41.9 24.4 0.64 72.04 0.64 95.86 41.9 72.04 83.15 24.4 83.15"/><path class="cls-2" d="M61.59,10.14a2.39,2.39,0,1,1,4.75,0A2.43,2.43,0,0,1,64,12.83,2.41,2.41,0,0,1,61.59,10.14Zm3.86,0c0-1.13-.55-2-1.49-2s-1.48.83-1.48,2,.55,2,1.5,2S65.45,11.28,65.45,10.14Z"/><path class="cls-2" d="M68.66,12.71V8.4h0l-1.43.65L67,8.36l1.73-.78h.77v5.13Z"/><rect class="cls-2" x="32.71" y="40" width="3.33" height="7.04" rx="1.61"/><path class="cls-2" d="M64.91,37.42A12.34,12.34,0,1,1,52.57,25.08,12.33,12.33,0,0,1,64.91,37.42Z"/><path class="cls-3" d="M50.81,29.21H56.1a1.77,1.77,0,0,1,1.18.37,1.81,1.81,0,0,1,.58.81v4.7l-5.29,1.76h1.77v3.53H50.81v-4.7l3.53-1.18V31H52.57v2.36L49,34.5V30.39a1,1,0,0,1,.52-.83A2.21,2.21,0,0,1,50.81,29.21Zm0,12.94h3.53v3.52H50.81Z"/><path class="cls-4" d="M60.5,73.71v-11s9-16.56,9-22.7c0-10.9-7.5-20.59-22.68-20.19A16.09,16.09,0,0,0,40.61,21C35,23.79,29.36,27.79,26.52,39v3.56a15.06,15.06,0,0,1-2,4.39l-3.17,6.28s-.31,3.63,2.95,3.7h1.74v5.83a5.34,5.34,0,0,0,5.6,4.84h3.71v6.09"/></g><g id="_05_moused_over_buttons" data-name="05 moused over buttons"><polygon class="cls-5" points="24.4 83.02 0.58 41.76 24.4 0.5 72.04 0.5 95.86 41.76 72.04 83.02 24.4 83.02"/><path class="cls-6" d="M61.59,10a2.39,2.39,0,1,1,4.75,0,2.39,2.39,0,1,1-4.75,0Zm3.86,0c0-1.14-.55-2-1.49-2s-1.48.83-1.48,2S63,12,64,12,65.45,11.15,65.45,10Z"/><path class="cls-6" d="M68.66,12.58V8.26h0l-1.43.66L67,8.22l1.73-.77h.77v5.13Z"/><path class="cls-6" d="M41.61,31.25H39.5V30.16h5.59v1.09H43v6H41.61Z"/><path class="cls-6" d="M45.8,29.78h1.35v3h0a1.88,1.88,0,0,1,.67-.58,2.07,2.07,0,0,1,.94-.23c.91,0,1.86.58,1.86,2.23v3H49.29v-2.9c0-.74-.28-1.31-1-1.31a1.14,1.14,0,0,0-1.06.73,1.19,1.19,0,0,0-.05.39v3.09H45.8Z"/><path class="cls-6" d="M53,35.08c0,.93.78,1.33,1.65,1.33a4.69,4.69,0,0,0,1.48-.23l.2.89a5,5,0,0,1-1.87.32,2.48,2.48,0,0,1-2.76-2.6A2.59,2.59,0,0,1,54.36,32a2.27,2.27,0,0,1,2.3,2.51,3.45,3.45,0,0,1,0,.55Zm2.35-.91a1.12,1.12,0,0,0-1.11-1.26A1.29,1.29,0,0,0,53,34.17Z"/><path class="cls-6" d="M28.88,42.94a11.67,11.67,0,0,1,2.06-.15,3.44,3.44,0,0,1,2.18.58A2,2,0,0,1,33.84,45a2.11,2.11,0,0,1-.63,1.6,3.34,3.34,0,0,1-2.34.78,2.52,2.52,0,0,1-.65-.06V50H28.88Zm1.34,3.31a2.39,2.39,0,0,0,.65.06c1,0,1.63-.49,1.63-1.31s-.57-1.21-1.5-1.21a3.79,3.79,0,0,0-.78.07Z"/><path class="cls-6" d="M34.83,46.48c0-.7,0-1.21,0-1.66H36l.06,1h0a1.59,1.59,0,0,1,1.47-1.09,1.08,1.08,0,0,1,.32,0V46a2.37,2.37,0,0,0-.41,0,1.18,1.18,0,0,0-1.21,1,2.47,2.47,0,0,0,0,.39V50H34.83Z"/><path class="cls-6" d="M43.73,47.35A2.61,2.61,0,0,1,41,50.09a2.55,2.55,0,0,1-2.68-2.66,2.59,2.59,0,0,1,2.77-2.73A2.52,2.52,0,0,1,43.73,47.35Zm-4,0c0,1,.51,1.74,1.33,1.74s1.3-.71,1.3-1.76c0-.8-.37-1.74-1.29-1.74S39.7,46.54,39.7,47.4Z"/><path class="cls-6" d="M44.84,42.46h1.35v3.07h0a2,2,0,0,1,1.71-.83,2.32,2.32,0,0,1,2.23,2.62,2.5,2.5,0,0,1-2.42,2.77A1.88,1.88,0,0,1,46,49.2h0L46,50H44.79c0-.35.05-.92.05-1.45Zm1.35,5.38a1.48,1.48,0,0,0,0,.31,1.23,1.23,0,0,0,1.2.91c.84,0,1.36-.65,1.36-1.69s-.45-1.65-1.35-1.65a1.25,1.25,0,0,0-1.2,1,1.67,1.67,0,0,0,0,.34Z"/><path class="cls-6" d="M51.26,42.46h1.36V50H51.26Z"/><path class="cls-6" d="M55,47.76c0,.93.78,1.33,1.65,1.33a4.34,4.34,0,0,0,1.48-.23l.2.89a5,5,0,0,1-1.87.33,2.49,2.49,0,0,1-2.75-2.61,2.59,2.59,0,0,1,2.61-2.77,2.27,2.27,0,0,1,2.31,2.51,2.44,2.44,0,0,1-.05.55Zm2.35-.91a1.11,1.11,0,0,0-1.11-1.26A1.3,1.3,0,0,0,55,46.85Z"/><path class="cls-6" d="M59.76,46.35c0-.59,0-1.09,0-1.53h1.16l.06.76h0a1.86,1.86,0,0,1,1.65-.88,1.56,1.56,0,0,1,1.49,1h0a1.92,1.92,0,0,1,.65-.65,1.87,1.87,0,0,1,1.09-.31c.88,0,1.78.59,1.78,2.23v3H66.33V47.13c0-.86-.31-1.37-1-1.37a1,1,0,0,0-.94.69,1.14,1.14,0,0,0-.07.43V50H63V47c0-.72-.3-1.23-.92-1.23a1.07,1.07,0,0,0-1,.73,1.61,1.61,0,0,0-.07.43v3H59.76Z"/></g></g></svg>