<svg xmlns="http://www.w3.org/2000/svg" xmlns:xlink="http://www.w3.org/1999/xlink" viewBox="0 0 96.44 83.52"><defs><style>.cls-1,.cls-4{stroke:#fff;}.cls-1,.cls-3,.cls-4{stroke-miterlimit:10;}.cls-1{fill:url(#linear-gradient);}.cls-2{fill:#393e46;}.cls-3{fill:none;stroke:#393e46;stroke-linecap:round;stroke-width:3px;}.cls-4{fill:#222a31;opacity:0.3;}.cls-5{fill:#fff;}</style><linearGradient id="linear-gradient" x1="0.58" y1="41.76" x2="95.86" y2="41.76" gradientUnits="userSpaceOnUse"><stop offset="0" stop-color="#fbfcfc"/><stop offset="0.41" stop-color="#f5f6f6"/><stop offset="0.96" stop-color="#e5e4e4"/><stop offset="1" stop-color="#e4e3e3"/></linearGradient></defs><g id="Layer_2" data-name="Layer 2"><g id="_05_buttons" data-name="05 buttons"><polygon class="cls-1" points="24.4 83.02 0.58 41.76 24.4 0.5 72.04 0.5 95.86 41.76 72.04 83.02 24.4 83.02"/><path class="cls-2" d="M61.26,10.43a2.4,2.4,0,1,1,4.76,0,2.4,2.4,0,1,1-4.76,0Zm3.86,0c0-1.13-.55-2-1.48-2s-1.48.84-1.48,2,.55,2,1.49,2S65.12,11.57,65.12,10.43Z"/><path class="cls-2" d="M66.92,13v-.57l.72-.71c1.76-1.67,2.56-2.56,2.56-3.59a1.22,1.22,0,0,0-1.35-1.35,2.38,2.38,0,0,0-1.46.58l-.3-.65A3.08,3.08,0,0,1,69,6a1.93,1.93,0,0,1,2.1,2c0,1.27-.91,2.29-2.36,3.69l-.54.51v0H71.3V13Z"/><path class="cls-2" d="M65.08,40.9a16.52,16.52,0,0,0-9.35-13.74,15.94,15.94,0,0,0-6.16-1.77c-.6-.06-1.21-.09-1.79-.09A16.37,16.37,0,0,0,36,30.24a16.37,16.37,0,0,0-5.09,13.49,16.27,16.27,0,0,0,5.32,11.13c.27.27.56.52.85.77a11.19,11.19,0,0,1,1.78,1.85,10.39,10.39,0,0,1,1.79,5.05,16.24,16.24,0,0,1,0,2c0,.4,0,.82,0,1.24s0,.49,0,.66a3.4,3.4,0,0,0,.15,1.39,6.89,6.89,0,0,0,2.8,3.56,3.8,3.8,0,0,0,.65.36,4.06,4.06,0,0,1,.62.33,4,4,0,0,1,.69.73,2.8,2.8,0,0,0,2.28,1.31H48a2.88,2.88,0,0,0,2.36-1.23,6.65,6.65,0,0,1,.59-.6,2.56,2.56,0,0,1,.53-.34l.35-.21c1.67-1,2.89-2.12,3.4-3.91a11.21,11.21,0,0,0,.15-3.27,15.31,15.31,0,0,1,0-2.13c.3-3.45,2.16-5.32,4.13-7.29a21.74,21.74,0,0,0,2.89-3.33A17.39,17.39,0,0,0,65.08,40.9Zm-6.77,9.44a17.46,17.46,0,0,1-2.15,2.24,16.14,16.14,0,0,0-2.62,2.88A13.84,13.84,0,0,0,51.17,63H44.88c-.31-5.45-3.18-8.76-5.66-11A12.54,12.54,0,0,1,35,41.3,13,13,0,0,1,47.13,29.44q.46,0,.93,0A12.87,12.87,0,0,1,60.91,41.18,13.13,13.13,0,0,1,58.31,50.34Z"/><path class="cls-2" d="M51.54,47.31a5.41,5.41,0,0,0-2.31.85,6.26,6.26,0,0,1-1.28.59c-.37-.14-.82-.35-1.3-.56L46.23,48l-.47-.23a3.78,3.78,0,0,0-1.51-.5,1.36,1.36,0,0,0-1.17.7.5.5,0,0,0,0,.21,39.41,39.41,0,0,0,.7,4.51l.1.55c0,.06,0,.13,0,.21.06.45.16,1.21.88,1.34a.33.33,0,0,0,.22,0c.59-.31.55-1,.52-1.51a3.49,3.49,0,0,1,0-.45c0-.59.07-1.22.11-1.78,0-.12,0-.25,0-.36a4,4,0,0,1,.7.33,3.27,3.27,0,0,0,1.7.55,3.37,3.37,0,0,0,1.62-.59,4.63,4.63,0,0,1,.58-.31c0,.37,0,.77.07,1.16s.06.78.07,1.16a2.6,2.6,0,0,1,0,.39,1.51,1.51,0,0,0,.38,1.37.35.35,0,0,0,.22.08h0c.83,0,1-.92,1-1.36,0-.07,0-.14,0-.19.33-1.71.63-3.38.8-5.05a.3.3,0,0,0-.06-.22A1.36,1.36,0,0,0,51.54,47.31Z"/><line class="cls-3" x1="47.97" y1="20.87" x2="47.97" y2="16.35"/><line class="cls-3" x1="26.78" y1="40.78" x2="22.26" y2="40.78"/><line class="cls-3" x1="73.69" y1="40.78" x2="69.16" y2="40.78"/><line class="cls-3" x1="67.82" y1="25.38" x2="65.18" y2="28.02"/><line class="cls-3" x1="28.12" y1="25.38" x2="30.76" y2="28.02"/></g><g id="_05_moused_over_buttons" data-name="05 moused over buttons"><polygon class="cls-4" points="24.4 83.02 0.58 41.76 24.4 0.5 72.04 0.5 95.86 41.76 72.04 83.02 24.4 83.02"/><path class="cls-5" d="M61.26,10.43a2.4,2.4,0,1,1,4.76,0,2.4,2.4,0,1,1-4.76,0Zm3.86,0c0-1.13-.55-2-1.48-2s-1.48.84-1.48,2,.55,2,1.49,2S65.12,11.57,65.12,10.43Z"/><path class="cls-5" d="M66.92,13v-.57l.72-.71c1.76-1.67,2.56-2.56,2.56-3.59a1.22,1.22,0,0,0-1.35-1.35,2.38,2.38,0,0,0-1.46.58l-.3-.65A3.08,3.08,0,0,1,69,6a1.93,1.93,0,0,1,2.1,2c0,1.27-.91,2.29-2.36,3.69l-.54.51v0H71.3V13Z"/><path class="cls-5" d="M40.68,31.17H38.57V30.08h5.59v1.09H42v6H40.68Z"/><path class="cls-5" d="M44.87,29.7h1.35v3.05h0a1.88,1.88,0,0,1,.67-.58,1.91,1.91,0,0,1,.93-.23c.92,0,1.87.58,1.87,2.23v3H48.36v-2.9c0-.74-.28-1.31-1-1.31a1.14,1.14,0,0,0-1.06.73,1.19,1.19,0,0,0-.05.39v3.09H44.87Z"/><path class="cls-5" d="M52.11,35c0,.93.78,1.33,1.65,1.33a4.4,4.4,0,0,0,1.48-.24l.19.89a4.92,4.92,0,0,1-1.86.33,2.48,2.48,0,0,1-2.76-2.6,2.59,2.59,0,0,1,2.62-2.77,2.27,2.27,0,0,1,2.3,2.51,3.45,3.45,0,0,1,0,.55Zm2.35-.91a1.12,1.12,0,0,0-1.11-1.26,1.29,1.29,0,0,0-1.24,1.26Z"/><path class="cls-5" d="M28,48.47a3.87,3.87,0,0,0,1.8.46c.85,0,1.34-.4,1.34-1s-.38-.85-1.31-1.18c-1.23-.42-2-1.05-2-2.07,0-1.18,1-2.05,2.62-2.05a4,4,0,0,1,1.77.35l-.32,1a3.27,3.27,0,0,0-1.48-.34c-.86,0-1.22.44-1.22.86s.43.8,1.42,1.17c1.28.47,1.9,1.09,1.9,2.12S31.56,50,29.66,50a4.43,4.43,0,0,1-2-.45Z"/><path class="cls-5" d="M38.78,47.27A2.6,2.6,0,0,1,36,50a2.53,2.53,0,0,1-2.68-2.65,2.59,2.59,0,0,1,2.77-2.73A2.52,2.52,0,0,1,38.78,47.27Zm-4,0c0,1,.52,1.74,1.33,1.74s1.31-.72,1.31-1.76c0-.81-.37-1.74-1.3-1.74S34.74,46.46,34.74,47.32Z"/><path class="cls-5" d="M39.88,42.38h1.36v7.51H39.88Z"/><path class="cls-5" d="M47.5,48.34c0,.62,0,1.13,0,1.55H46.37l-.07-.77h0a2,2,0,0,1-1.73.88c-1,0-1.85-.56-1.85-2.24v-3H44v2.8c0,.86.28,1.41,1,1.41a1.09,1.09,0,0,0,1-.7,1,1,0,0,0,.08-.4V44.74H47.5Z"/><path class="cls-5" d="M50.51,43.42v1.32h1.28v1H50.51V48c0,.63.17.95.69.95a1.61,1.61,0,0,0,.53-.06l0,1a3.25,3.25,0,0,1-1,.13,1.55,1.55,0,0,1-1.16-.42,2,2,0,0,1-.43-1.45V45.71h-.76v-1h.76v-1Z"/><path class="cls-5" d="M54.25,43.3a.76.76,0,0,1-1.51,0,.71.71,0,0,1,.76-.71A.7.7,0,0,1,54.25,43.3Zm-1.44,6.59V44.74h1.36v5.15Z"/><path class="cls-5" d="M60.71,47.27A2.59,2.59,0,0,1,58,50a2.53,2.53,0,0,1-2.68-2.65,2.59,2.59,0,0,1,2.77-2.73A2.51,2.51,0,0,1,60.71,47.27Zm-4,0c0,1,.52,1.74,1.33,1.74s1.31-.72,1.31-1.76c0-.81-.38-1.74-1.3-1.74S56.68,46.46,56.68,47.32Z"/><path class="cls-5" d="M61.82,46.27c0-.59,0-1.09,0-1.53H63l.07.77h0a2,2,0,0,1,1.72-.89c.93,0,1.9.58,1.9,2.21v3.06H65.32V47c0-.74-.29-1.3-1-1.3a1.13,1.13,0,0,0-1.06.76,1.31,1.31,0,0,0-.06.41v3H61.82Z"/></g></g></svg>