<svg xmlns="http://www.w3.org/2000/svg" xmlns:xlink="http://www.w3.org/1999/xlink" viewBox="0 0 96.44 83.52"><defs><style>.cls-1,.cls-6{stroke:#fff;}.cls-1,.cls-3,.cls-4,.cls-6{stroke-miterlimit:10;}.cls-1{fill:url(#linear-gradient);}.cls-2{fill:#393e46;}.cls-3{fill:none;}.cls-3,.cls-4{stroke:#4e4e4e;stroke-width:3px;}.cls-4{fill:#4e4e4e;}.cls-5{fill:#efeeee;}.cls-6{fill:#222a31;opacity:0.3;}.cls-7{fill:#fff;}</style><linearGradient id="linear-gradient" x1="0.58" y1="41.76" x2="95.86" y2="41.76" gradientUnits="userSpaceOnUse"><stop offset="0" stop-color="#fbfcfc"/><stop offset="0.41" stop-color="#f5f6f6"/><stop offset="0.96" stop-color="#e5e4e4"/><stop offset="1" stop-color="#e4e3e3"/></linearGradient></defs><g id="Layer_2" data-name="Layer 2"><g id="_05_buttons" data-name="05 buttons"><polygon class="cls-1" points="24.4 83.02 0.58 41.76 24.4 0.5 72.04 0.5 95.86 41.76 72.04 83.02 24.4 83.02"/><path class="cls-2" d="M62.26,10.17a2.4,2.4,0,1,1,4.76,0,2.4,2.4,0,1,1-4.76,0Zm3.86,0c0-1.13-.55-2-1.48-2s-1.48.84-1.48,2,.55,2,1.49,2S66.12,11.31,66.12,10.17Z"/><path class="cls-2" d="M68.14,11.68a3.18,3.18,0,0,0,1.52.42c1.18,0,1.56-.75,1.56-1.33,0-1-.88-1.37-1.78-1.37h-.52V8.7h.52c.68,0,1.53-.35,1.53-1.16,0-.55-.35-1-1.2-1A2.49,2.49,0,0,0,68.39,7l-.25-.68A3.29,3.29,0,0,1,70,5.75c1.35,0,2,.8,2,1.64A1.72,1.72,0,0,1,70.64,9V9a1.78,1.78,0,0,1,1.54,1.75c0,1.1-.87,2.07-2.51,2.07a3.53,3.53,0,0,1-1.79-.47Z"/><path class="cls-3" d="M48.39,66.54c0-.36-.42-3.58-.59-7.85.1-.59.28-1.22.64-1.37.57-.23,1.29.13,2,.67h0A4,4,0,1,0,53,50.91a3.4,3.4,0,0,0-2.51.86h0c-.7.67-1.44,1.08-2,.84-.35-.15-.54-.77-.64-1.35.17-4.21.57-7.37.63-7.78-.11,0-3.74.47-8.53.62a1.07,1.07,0,0,1-.7-.49c-.24-.57.13-1.29.67-2h0a3.93,3.93,0,0,0,.91-2.55,4,4,0,1,0-7.94,0,3.42,3.42,0,0,0,.89,2.5h0c.34.7,1.05,1.44.81,2a1.17,1.17,0,0,1-.73.49c-4.59-.16-8.11-.6-8.46-.65,0,.07.05,22.74,0,23.1Z"/><path class="cls-4" d="M49.11,20.25h0s-.52,4-.64,9.22a.54.54,0,0,0,.27.23c.57.24,1.29-.14,2-.68h0a4,4,0,1,1,2.55,7,3.51,3.51,0,0,1-2.51-1h0c-.7-.33-1.43-1-2-.75-.11.05-.17.17-.25.28.15,5,.67,8.73.67,8.73v0S53,43.87,58,44a.76.76,0,0,0,.37-.36c.24-.57-.14-1.29-.68-2h0a3.92,3.92,0,0,1-.93-2.54,4,4,0,0,1,4-4,4,4,0,0,1,4,4,5.84,5.84,0,0,1-.85,2.51h0c-.67.7-1.09,1.43-.85,2a.76.76,0,0,0,.38.37c5-.16,8.83-.7,8.83-.7v-23l-24-.06"/><path class="cls-3" d="M72.23,66.48V43.68c-.34.06-3.54.46-7.69.64-.62-.09-1.28-.27-1.45-.65-.24-.57.13-1.29.67-2h0a4,4,0,1,0-7.08-2.55,3.36,3.36,0,0,0,.84,2.5h0c.67.7,1.09,1.45.85,2-.16.38-.84.59-1.46.68-4.43-.2-7.68-.62-7.68-.62h0a.84.84,0,0,1,0-.12c-.08.6-.54,4.13-.69,8.69a.79.79,0,0,0,.36.38c.57.24,1.29-.13,2-.67h0a4,4,0,1,1,2.55,7,3.45,3.45,0,0,1-2.51-.92h0c-.7-.67-1.43-1-2-.77a.86.86,0,0,0-.37.42c.15,4.59.7,8.72.7,8.72h23Z"/><path class="cls-3" d="M25.49,43.36v0s4.13.55,8.71.69a.78.78,0,0,0,.42-.37c.24-.56-.1-1.3-.77-2h0a3.44,3.44,0,0,1-.92-2.5,4,4,0,1,1,7,2.55h0c-.54.69-.91,1.41-.67,2a.76.76,0,0,0,.39.35c4.56-.15,8.09-.6,8.69-.68h-.13v0s-.42-3.24-.62-7.68c.1-.62.3-1.3.68-1.46.57-.24,1.32.19,2,.85h0a3.39,3.39,0,0,0,2.51.85,4,4,0,1,0-2.56-7.09h0c-.69.54-1.41.91-2,.67-.38-.16-.57-.83-.66-1.45.18-4.15.59-7.35.65-7.68H25.49Z"/><rect class="cls-5" x="58.72" y="27.19" width="10.43" height="1.99"/><rect class="cls-5" x="62.94" y="22.97" width="1.99" height="10.43"/></g><g id="_05_moused_over_buttons" data-name="05 moused over buttons"><polygon class="cls-6" points="24.4 83.02 0.58 41.76 24.4 0.5 72.04 0.5 95.86 41.76 72.04 83.02 24.4 83.02"/><path class="cls-7" d="M62.26,10.17a2.4,2.4,0,1,1,4.76,0,2.4,2.4,0,1,1-4.76,0Zm3.86,0c0-1.13-.55-2-1.48-2s-1.48.84-1.48,2,.55,2,1.49,2S66.12,11.31,66.12,10.17Z"/><path class="cls-7" d="M68.14,11.68a3.18,3.18,0,0,0,1.52.42c1.18,0,1.56-.75,1.56-1.33,0-1-.88-1.37-1.78-1.37h-.52V8.7h.52c.68,0,1.53-.35,1.53-1.16,0-.55-.35-1-1.2-1A2.49,2.49,0,0,0,68.39,7l-.25-.68A3.29,3.29,0,0,1,70,5.75c1.35,0,2,.8,2,1.64A1.72,1.72,0,0,1,70.64,9V9a1.78,1.78,0,0,1,1.54,1.75c0,1.1-.87,2.07-2.51,2.07a3.53,3.53,0,0,1-1.79-.47Z"/><path class="cls-7" d="M41.68,32.86H39.57V31.77h5.59v1.09H43v6H41.68Z"/><path class="cls-7" d="M45.87,31.39h1.35v3.06h0a1.79,1.79,0,0,1,.67-.58,1.92,1.92,0,0,1,.93-.24c.92,0,1.87.58,1.87,2.24v3H49.36V36c0-.74-.28-1.31-1-1.31a1.14,1.14,0,0,0-1.06.73,1.23,1.23,0,0,0-.05.39V38.9H45.87Z"/><path class="cls-7" d="M53.11,36.69c0,.93.78,1.33,1.65,1.33a4.42,4.42,0,0,0,1.48-.23l.19.89a4.92,4.92,0,0,1-1.86.33,2.49,2.49,0,0,1-2.76-2.61,2.59,2.59,0,0,1,2.62-2.77,2.27,2.27,0,0,1,2.3,2.51,3.45,3.45,0,0,1,0,.55Zm2.35-.91a1.12,1.12,0,0,0-1.11-1.26,1.29,1.29,0,0,0-1.24,1.26Z"/><path class="cls-7" d="M30.3,49.56l-.64,2h-1.4l2.38-7.12h1.72l2.41,7.12H33.31l-.67-2Zm2.12-1-.59-1.76c-.14-.43-.26-.92-.37-1.33h0c-.11.41-.23.91-.35,1.33l-.58,1.76Z"/><path class="cls-7" d="M40.53,44.07v6.06c0,.53,0,1.1,0,1.45h-1.2l-.07-.81h0a1.93,1.93,0,0,1-1.73.93,2.39,2.39,0,0,1-2.3-2.63,2.48,2.48,0,0,1,2.4-2.75,1.72,1.72,0,0,1,1.5.66h0V44.07Zm-1.35,4.51a2.07,2.07,0,0,0,0-.35A1.17,1.17,0,0,0,38,47.32c-.87,0-1.36.74-1.36,1.69s.49,1.64,1.34,1.64a1.19,1.19,0,0,0,1.17-.92,1.48,1.48,0,0,0,0-.38Z"/><path class="cls-7" d="M46.92,44.07v6.06c0,.53,0,1.1,0,1.45h-1.2l-.06-.81h0a2,2,0,0,1-1.74.93,2.39,2.39,0,0,1-2.3-2.63A2.48,2.48,0,0,1,44,46.32a1.72,1.72,0,0,1,1.5.66h0V44.07Zm-1.35,4.51a2.09,2.09,0,0,0,0-.35,1.17,1.17,0,0,0-1.16-.91c-.87,0-1.35.74-1.35,1.69s.48,1.64,1.34,1.64a1.18,1.18,0,0,0,1.16-.92,1.46,1.46,0,0,0,0-.38Z"/><path class="cls-7" d="M57.26,48a3.42,3.42,0,0,1-3.53,3.75,3.36,3.36,0,0,1-3.42-3.63,3.48,3.48,0,0,1,3.53-3.74A3.34,3.34,0,0,1,57.26,48ZM51.74,48c0,1.46.76,2.61,2,2.61s2.05-1.17,2.05-2.66-.7-2.61-2.05-2.61S51.74,46.57,51.74,48Z"/><path class="cls-7" d="M58.41,48c0-.6,0-1.09,0-1.54h1.18l.06.78h0a2,2,0,0,1,1.71-.89c.93,0,1.9.58,1.9,2.21v3H61.9V48.67c0-.74-.29-1.3-1-1.3a1.14,1.14,0,0,0-1.06.76,1.33,1.33,0,0,0-.06.42v3H58.41Z"/><path class="cls-7" d="M64.64,50.38a3,3,0,0,0,1.36.38c.59,0,.85-.25.85-.58s-.21-.52-.87-.75c-1-.34-1.48-.89-1.48-1.51,0-.91.78-1.6,2-1.6a3.14,3.14,0,0,1,1.43.3l-.27.91a2.53,2.53,0,0,0-1.13-.29c-.49,0-.75.23-.75.55s.25.47.93.72c1,.32,1.42.8,1.43,1.56,0,.94-.76,1.62-2.17,1.62a3.61,3.61,0,0,1-1.63-.36Z"/></g></g></svg>