<svg xmlns="http://www.w3.org/2000/svg" xmlns:xlink="http://www.w3.org/1999/xlink" viewBox="0 0 96.44 83.52"><defs><style>.cls-1,.cls-3{stroke:#fff;stroke-miterlimit:10;}.cls-1{fill:url(#linear-gradient);}.cls-2{fill:#393e46;}.cls-3{fill:#222a31;opacity:0.3;}.cls-4{fill:#fff;}</style><linearGradient id="linear-gradient" x1="0.58" y1="41.76" x2="95.86" y2="41.76" gradientUnits="userSpaceOnUse"><stop offset="0" stop-color="#fbfcfc"/><stop offset="0.41" stop-color="#f5f6f6"/><stop offset="0.96" stop-color="#e5e4e4"/><stop offset="1" stop-color="#e4e3e3"/></linearGradient></defs><g id="Layer_2" data-name="Layer 2"><g id="_05_buttons" data-name="05 buttons"><polygon class="cls-1" points="24.4 83.02 0.58 41.76 24.4 0.5 72.04 0.5 95.86 41.76 72.04 83.02 24.4 83.02"/><path class="cls-2" d="M61.83,10.17a2.4,2.4,0,1,1,4.76,0,2.4,2.4,0,1,1-4.76,0Zm3.86,0c0-1.13-.55-2-1.48-2s-1.48.84-1.48,2,.55,2,1.49,2S65.69,11.31,65.69,10.17Z"/><path class="cls-2" d="M71.59,6.65H69L68.7,8.41a4.17,4.17,0,0,1,.56,0,2.81,2.81,0,0,1,1.48.37,2,2,0,0,1,1,1.76,2.38,2.38,0,0,1-2.55,2.35,3.41,3.41,0,0,1-1.72-.43l.23-.71a3.12,3.12,0,0,0,1.49.38,1.5,1.5,0,0,0,1.61-1.49c0-.88-.6-1.51-2-1.51a6.15,6.15,0,0,0-1,.07l.45-3.3h3.29Z"/><path class="cls-2" d="M48.39,37.19,32.26,50.5V67.32H64.52V50.55Zm-.24,23.72h-6V55.32h6Zm0-6.32h-6V49h6Zm6.76,6.32h-6V55.32h6Zm0-6.32h-6V49h6Z"/><path class="cls-2" d="M48.4,13.3,14.78,40.79l3.72,4.52,8.13-6.69v21.9h3.23v-12L48.4,33.2,66.92,48.56v12H70V38.84l7.86,6.47,3.72-4.52Z"/></g><g id="_05_moused_over_buttons" data-name="05 moused over buttons"><polygon class="cls-3" points="24.4 83.02 0.58 41.76 24.4 0.5 72.04 0.5 95.86 41.76 72.04 83.02 24.4 83.02"/><path class="cls-4" d="M61.83,10.17a2.4,2.4,0,1,1,4.76,0,2.4,2.4,0,1,1-4.76,0Zm3.86,0c0-1.13-.55-2-1.48-2s-1.48.84-1.48,2,.55,2,1.49,2S65.69,11.31,65.69,10.17Z"/><path class="cls-4" d="M71.59,6.65H69L68.7,8.41a4.17,4.17,0,0,1,.56,0,2.81,2.81,0,0,1,1.48.37,2,2,0,0,1,1,1.76,2.38,2.38,0,0,1-2.55,2.35,3.41,3.41,0,0,1-1.72-.43l.23-.71a3.12,3.12,0,0,0,1.49.38,1.5,1.5,0,0,0,1.61-1.49c0-.88-.6-1.51-2-1.51a6.15,6.15,0,0,0-1,.07l.45-3.3h3.29Z"/><path class="cls-4" d="M24.61,44.17a3.87,3.87,0,0,0,1.79.45c.86,0,1.35-.39,1.35-1s-.38-.86-1.31-1.19c-1.23-.42-2-1-2-2.07s1-2,2.62-2a4,4,0,0,1,1.77.36l-.32,1A3.27,3.27,0,0,0,27,39.41c-.86,0-1.22.43-1.22.85s.43.81,1.42,1.18c1.28.46,1.9,1.09,1.9,2.11s-.9,2.15-2.8,2.15a4.29,4.29,0,0,1-2-.46Z"/><path class="cls-4" d="M34.28,45.42a3.9,3.9,0,0,1-1.51.27A2.54,2.54,0,0,1,30,43.05a2.71,2.71,0,0,1,3-2.73,3.61,3.61,0,0,1,1.3.23l-.24,1a2.39,2.39,0,0,0-1-.2,1.67,1.67,0,0,0,0,3.33,2.66,2.66,0,0,0,1.06-.2Z"/><path class="cls-4" d="M39.43,44.35a7.12,7.12,0,0,0,.09,1.23H38.3L38.2,45h0a2,2,0,0,1-1.58.69,1.56,1.56,0,0,1-1.68-1.53c0-1.29,1.19-2,3.17-2v-.09c0-.33-.14-.89-1.09-.89a2.81,2.81,0,0,0-1.43.38l-.27-.85a4,4,0,0,1,1.94-.45,2,2,0,0,1,2.2,2.17Zm-1.31-1.28c-1,0-1.87.18-1.87,1a.7.7,0,0,0,.77.74,1.1,1.1,0,0,0,1.06-.71.73.73,0,0,0,0-.29Z"/><path class="cls-4" d="M40.86,38.07h1.35v7.51H40.86Z"/><path class="cls-4" d="M47.84,44.35a6.24,6.24,0,0,0,.09,1.23H46.71l-.1-.57h0A2,2,0,0,1,45,45.7a1.56,1.56,0,0,1-1.68-1.53c0-1.29,1.2-2,3.18-2v-.09c0-.33-.15-.89-1.09-.89a2.82,2.82,0,0,0-1.44.38l-.26-.85a4,4,0,0,1,1.93-.45,2,2,0,0,1,2.21,2.17Zm-1.32-1.28c-1,0-1.87.18-1.87,1a.7.7,0,0,0,.77.74,1.12,1.12,0,0,0,1.07-.71,1,1,0,0,0,0-.29Z"/><path class="cls-4" d="M49.27,38.07h1.35v3.07h0a1.94,1.94,0,0,1,1.71-.82,2.31,2.31,0,0,1,2.23,2.61,2.5,2.5,0,0,1-2.42,2.77,1.86,1.86,0,0,1-1.7-.89h0l-.06.77H49.22c0-.35.05-.92.05-1.45Zm1.35,5.39a1.45,1.45,0,0,0,0,.3,1.23,1.23,0,0,0,1.2.91c.84,0,1.36-.64,1.36-1.69s-.45-1.65-1.35-1.65a1.24,1.24,0,0,0-1.2,1,1.67,1.67,0,0,0,0,.34Z"/><path class="cls-4" d="M57.13,39a.7.7,0,0,1-.77.7.7.7,0,1,1,.77-.7Zm-1.44,6.59V40.43H57v5.15Z"/><path class="cls-4" d="M58.5,38.07h1.36v7.51H58.5Z"/><path class="cls-4" d="M62.77,39a.76.76,0,1,1-.76-.7A.71.71,0,0,1,62.77,39Zm-1.44,6.59V40.43h1.35v5.15Z"/><path class="cls-4" d="M65.69,39.11v1.32H67v1H65.69v2.27c0,.63.18,1,.69,1a1.94,1.94,0,0,0,.53-.05l0,1a3.19,3.19,0,0,1-1,.14,1.59,1.59,0,0,1-1.16-.42,2,2,0,0,1-.43-1.45V41.41H63.6v-1h.76v-1Z"/><path class="cls-4" d="M68.93,40.43l1,2.76c.11.32.23.71.3,1h0c.07-.29.17-.68.28-1l.84-2.75h1.44l-1.34,3.51c-.74,1.93-1.23,2.78-1.86,3.31a2.85,2.85,0,0,1-1.42.66l-.31-1.09a2.23,2.23,0,0,0,.78-.36,2.27,2.27,0,0,0,.75-.81.45.45,0,0,0,.08-.24.58.58,0,0,0-.07-.25l-2-4.73Z"/></g></g></svg>