<svg xmlns="http://www.w3.org/2000/svg" xmlns:xlink="http://www.w3.org/1999/xlink" viewBox="0 0 96.44 83.52"><defs><style>.cls-1,.cls-3{stroke:#fff;stroke-miterlimit:10;}.cls-1{fill:url(#linear-gradient);}.cls-2{fill:#393e46;}.cls-3{fill:#222a31;opacity:0.3;}.cls-4{fill:#fff;}</style><linearGradient id="linear-gradient" x1="0.58" y1="41.76" x2="95.86" y2="41.76" gradientUnits="userSpaceOnUse"><stop offset="0" stop-color="#fbfcfc"/><stop offset="0.41" stop-color="#f5f6f6"/><stop offset="0.96" stop-color="#e5e4e4"/><stop offset="1" stop-color="#e4e3e3"/></linearGradient></defs><g id="Layer_2" data-name="Layer 2"><g id="_05_buttons" data-name="05 buttons"><polygon class="cls-1" points="24.4 83.02 0.58 41.76 24.4 0.5 72.04 0.5 95.86 41.76 72.04 83.02 24.4 83.02"/><path class="cls-2" d="M61.83,10.43a2.4,2.4,0,1,1,4.76,0,2.4,2.4,0,1,1-4.76,0Zm3.86,0c0-1.13-.55-2-1.48-2s-1.48.84-1.48,2,.55,2,1.49,2S65.69,11.57,65.69,10.43Z"/><path class="cls-2" d="M71.41,6.78a3,3,0,0,0-.7.06,2.75,2.75,0,0,0-2.39,2.43h0a2.09,2.09,0,0,1,3.74,1.42,2.3,2.3,0,0,1-2.29,2.43c-1.46,0-2.42-1.14-2.42-2.93a4.26,4.26,0,0,1,1.16-3.1,3.77,3.77,0,0,1,2.2-1A4.8,4.8,0,0,1,71.41,6Zm-.27,4a1.4,1.4,0,0,0-1.41-1.58,1.55,1.55,0,0,0-1.35.85.91.91,0,0,0-.09.4c0,1.13.54,2,1.52,2C70.6,12.4,71.14,11.73,71.14,10.75Z"/><path class="cls-2" d="M74.39,53.33a9.57,9.57,0,0,0-10.32-3.84L57,42.41l-1.49,1.5,4.75,4.75a1.73,1.73,0,1,1-2.45,2.45L53,46.35l-1.49,1.5L58,54.32a9.57,9.57,0,0,0,9.21,14L62.9,62a1.91,1.91,0,0,1,.49-2.64l4.78-3.29a1.92,1.92,0,0,1,2.65.49l4.32,6.3A9.54,9.54,0,0,0,74.39,53.33Zm-30-19.83A1.71,1.71,0,0,1,45.6,34l5.3,5.3,1.5-1.49-6.89-6.89a9.56,9.56,0,0,0-9.4-13.78L40.5,23.4A1.9,1.9,0,0,1,40,26.05l-4.75,3.34a1.9,1.9,0,0,1-2.65-.47l-4.4-6.26A9.57,9.57,0,0,0,39.58,35.88L47,43.26l1.5-1.49-5.31-5.31a1.73,1.73,0,0,1,0-2.45A1.7,1.7,0,0,1,44.37,33.5Z"/><path class="cls-2" d="M49.88,52.45a.82.82,0,0,1-1.17,0L43.35,47.1a.83.83,0,0,1,0-1.17l.29-.29a.83.83,0,0,1,1.17,0L50.16,51a.82.82,0,0,1,0,1.17Z"/><path class="cls-2" d="M47.5,53.64,35.8,66.4,34.36,68a4.44,4.44,0,0,1-1.52,1,4.34,4.34,0,0,1-1.3.32l-.44,0A4.54,4.54,0,0,1,27.84,68a4.61,4.61,0,0,1,0-6.53L29.4,60,42.16,48.31Z"/><path class="cls-2" d="M71.47,25.38l-2.23,3.5-2,.84L49.6,47.39,47.41,45.2,65.09,27.53l.84-2,3.5-2.23.18.19L67,25.69a1.49,1.49,0,0,0,.21,1.87c.46.46,1.46.73,1.92.27l2.11-2.64Z"/></g><g id="_05_moused_over_buttons" data-name="05 moused over buttons"><polygon class="cls-3" points="24.4 83.02 0.58 41.76 24.4 0.5 72.04 0.5 95.86 41.76 72.04 83.02 24.4 83.02"/><path class="cls-4" d="M61.83,10.43a2.4,2.4,0,1,1,4.76,0,2.4,2.4,0,1,1-4.76,0Zm3.86,0c0-1.13-.55-2-1.48-2s-1.48.84-1.48,2,.55,2,1.49,2S65.69,11.57,65.69,10.43Z"/><path class="cls-4" d="M71.41,6.78a3,3,0,0,0-.7.06,2.75,2.75,0,0,0-2.39,2.43h0a2.09,2.09,0,0,1,3.74,1.42,2.3,2.3,0,0,1-2.29,2.43c-1.46,0-2.42-1.14-2.42-2.93a4.26,4.26,0,0,1,1.16-3.1,3.77,3.77,0,0,1,2.2-1A4.8,4.8,0,0,1,71.41,6Zm-.27,4a1.4,1.4,0,0,0-1.41-1.58,1.55,1.55,0,0,0-1.35.85.91.91,0,0,0-.09.4c0,1.13.54,2,1.52,2C70.6,12.4,71.14,11.73,71.14,10.75Z"/><path class="cls-4" d="M23.69,38.76v7.13H22.34V38.76Z"/><path class="cls-4" d="M25.25,42.27c0-.59,0-1.09,0-1.53h1.17l.07.77h0a2,2,0,0,1,1.71-.89c.94,0,1.91.58,1.91,2.21v3.06H28.74V43c0-.74-.28-1.3-1-1.3a1.12,1.12,0,0,0-1,.76,1.07,1.07,0,0,0-.07.41v3H25.25Z"/><path class="cls-4" d="M31.48,44.68a3,3,0,0,0,1.36.38c.6,0,.86-.24.86-.58s-.22-.52-.88-.75c-1-.34-1.47-.89-1.47-1.5,0-.91.78-1.61,2-1.61a3.19,3.19,0,0,1,1.43.31l-.28.91a2.39,2.39,0,0,0-1.13-.3c-.48,0-.75.23-.75.55s.26.48.94.72c1,.33,1.42.8,1.43,1.57,0,.94-.76,1.61-2.18,1.61a3.41,3.41,0,0,1-1.62-.36Z"/><path class="cls-4" d="M37.66,39.42v1.32H39v1H37.66V44c0,.63.18.95.7.95a1.51,1.51,0,0,0,.52-.06l0,1a3.25,3.25,0,0,1-1,.13,1.57,1.57,0,0,1-1.17-.42,2,2,0,0,1-.42-1.45V41.71h-.76v-1h.76v-1Z"/><path class="cls-4" d="M44.12,44.65a7.24,7.24,0,0,0,.09,1.24H43l-.1-.57h0a2,2,0,0,1-1.58.68,1.56,1.56,0,0,1-1.68-1.53c0-1.29,1.2-2,3.17-1.94v-.09c0-.34-.14-.9-1.08-.9a2.93,2.93,0,0,0-1.44.38L40,41.08a3.91,3.91,0,0,1,1.94-.46,2,2,0,0,1,2.2,2.18Zm-1.31-1.28c-1,0-1.87.18-1.87,1a.7.7,0,0,0,.77.74,1.09,1.09,0,0,0,1.06-.7.75.75,0,0,0,0-.29Z"/><path class="cls-4" d="M45.55,38.38H46.9v7.51H45.55Z"/><path class="cls-4" d="M48.38,38.38h1.35v7.51H48.38Z"/><path class="cls-4" d="M55.35,44.65a6.35,6.35,0,0,0,.09,1.24H54.22l-.1-.57h0a2,2,0,0,1-1.58.68,1.56,1.56,0,0,1-1.68-1.53c0-1.29,1.19-2,3.17-1.94v-.09c0-.34-.14-.9-1.09-.9a3,3,0,0,0-1.44.38l-.26-.84a3.9,3.9,0,0,1,1.93-.46,2,2,0,0,1,2.21,2.18ZM54,43.37c-1,0-1.86.18-1.86,1a.69.69,0,0,0,.76.74,1.1,1.1,0,0,0,1.07-.7,1,1,0,0,0,0-.29Z"/><path class="cls-4" d="M58.26,39.42v1.32h1.29v1H58.26V44c0,.63.18.95.69.95a1.54,1.54,0,0,0,.53-.06l0,1a3.17,3.17,0,0,1-1,.13,1.56,1.56,0,0,1-1.17-.42,2,2,0,0,1-.43-1.45V41.71h-.76v-1h.76v-1Z"/><path class="cls-4" d="M62,39.3a.76.76,0,1,1-.76-.71A.71.71,0,0,1,62,39.3Zm-1.44,6.59V40.74h1.35v5.15Z"/><path class="cls-4" d="M68.47,43.27A2.6,2.6,0,0,1,65.72,46,2.54,2.54,0,0,1,63,43.35a2.59,2.59,0,0,1,2.77-2.73A2.52,2.52,0,0,1,68.47,43.27Zm-4,0c0,1,.51,1.74,1.33,1.74s1.3-.72,1.3-1.76c0-.81-.37-1.74-1.29-1.74S64.44,42.46,64.44,43.32Z"/><path class="cls-4" d="M69.58,42.27c0-.59,0-1.09,0-1.53h1.18l.07.77h0a2,2,0,0,1,1.71-.89c.94,0,1.9.58,1.9,2.21v3.06H73.07V43c0-.74-.28-1.3-1-1.3a1.12,1.12,0,0,0-1,.76,1.07,1.07,0,0,0-.07.41v3H69.58Z"/></g></g></svg>