<svg xmlns="http://www.w3.org/2000/svg" xmlns:xlink="http://www.w3.org/1999/xlink" viewBox="0 0 96.44 83.65"><defs><style>.cls-1,.cls-5{stroke:#fff;}.cls-1,.cls-4,.cls-5{stroke-miterlimit:10;}.cls-1{fill:url(#linear-gradient);}.cls-2{fill:#393e46;}.cls-3{fill:#efeeee;}.cls-4{fill:none;stroke:#393e46;stroke-linecap:round;stroke-width:3px;}.cls-5{fill:#222a31;opacity:0.3;}.cls-6,.cls-7{fill:#fff;}.cls-7{font-size:14px;font-family:KozGoPr6N-Regular-90ms-RKSJ-H, Kozuka Gothic Pr6N;}</style><linearGradient id="linear-gradient" x1="0.58" y1="41.9" x2="95.86" y2="41.9" gradientUnits="userSpaceOnUse"><stop offset="0" stop-color="#fbfcfc"/><stop offset="0.41" stop-color="#f5f6f6"/><stop offset="0.96" stop-color="#e5e4e4"/><stop offset="1" stop-color="#e4e3e3"/></linearGradient></defs><g id="Layer_2" data-name="Layer 2"><g id="Layer_16" data-name="Layer 16"><polygon class="cls-1" points="24.4 83.15 0.58 41.9 24.4 0.64 72.04 0.64 95.86 41.9 72.04 83.15 24.4 83.15"/><path class="cls-2" d="M61.59,10.14a2.39,2.39,0,1,1,4.75,0A2.43,2.43,0,0,1,64,12.83,2.41,2.41,0,0,1,61.59,10.14Zm3.86,0c0-1.13-.55-2-1.49-2s-1.48.83-1.48,2,.55,2,1.5,2S65.45,11.28,65.45,10.14Z"/><path class="cls-2" d="M68.66,12.71V8.4h0l-1.43.65L67,8.36l1.73-.78h.77v5.13Z"/><rect class="cls-2" x="32.71" y="40" width="3.33" height="7.04" rx="1.61"/><path class="cls-2" d="M64.91,37.42A12.34,12.34,0,1,1,52.57,25.08,12.33,12.33,0,0,1,64.91,37.42Z"/><path class="cls-3" d="M50.81,29.21H56.1a1.77,1.77,0,0,1,1.18.37,1.81,1.81,0,0,1,.58.81v4.7l-5.29,1.76h1.77v3.53H50.81v-4.7l3.53-1.18V31H52.57v2.36L49,34.5V30.39a1,1,0,0,1,.52-.83A2.21,2.21,0,0,1,50.81,29.21Zm0,12.94h3.53v3.52H50.81Z"/><path class="cls-4" d="M60.5,73.71v-11s9-16.56,9-22.7c0-10.9-7.5-20.59-22.68-20.19A16.09,16.09,0,0,0,40.61,21C35,23.79,29.36,27.79,26.52,39v3.56a15.06,15.06,0,0,1-2,4.39l-3.17,6.28s-.31,3.63,2.95,3.7h1.74v5.83a5.34,5.34,0,0,0,5.6,4.84h3.71v6.09"/><polygon class="cls-5" points="24.4 83.02 0.58 41.76 24.4 0.5 72.04 0.5 95.86 41.76 72.04 83.02 24.4 83.02"/><path class="cls-6" d="M61.59,10a2.39,2.39,0,1,1,4.75,0,2.39,2.39,0,1,1-4.75,0Zm3.86,0c0-1.14-.55-2-1.49-2s-1.48.83-1.48,2S63,12,64,12,65.45,11.15,65.45,10Z"/><path class="cls-6" d="M68.66,12.58V8.26h0l-1.43.66L67,8.22l1.73-.77h.77v5.13Z"/><text class="cls-7" transform="translate(34.71 47.04)">課題</text></g></g></svg>