<svg xmlns="http://www.w3.org/2000/svg" xmlns:xlink="http://www.w3.org/1999/xlink" viewBox="0 0 96.44 83.52"><defs><style>.cls-1,.cls-6{stroke:#fff;}.cls-1,.cls-3,.cls-4,.cls-6{stroke-miterlimit:10;}.cls-1{fill:url(#linear-gradient);}.cls-2{fill:#393e46;}.cls-3{fill:none;}.cls-3,.cls-4{stroke:#4e4e4e;stroke-width:3px;}.cls-4{fill:#4e4e4e;}.cls-5{fill:#efeeee;}.cls-6{fill:#222a31;opacity:0.3;}.cls-7,.cls-8{fill:#fff;}.cls-8{font-size:12px;font-family:KozGoPr6N-Regular-90ms-RKSJ-H, Kozuka Gothic Pr6N;}</style><linearGradient id="linear-gradient" x1="0.58" y1="41.76" x2="95.86" y2="41.76" gradientUnits="userSpaceOnUse"><stop offset="0" stop-color="#fbfcfc"/><stop offset="0.41" stop-color="#f5f6f6"/><stop offset="0.96" stop-color="#e5e4e4"/><stop offset="1" stop-color="#e4e3e3"/></linearGradient></defs><g id="Layer_2" data-name="Layer 2"><g id="Layer_17" data-name="Layer 17"><polygon class="cls-1" points="24.4 83.02 0.58 41.76 24.4 0.5 72.04 0.5 95.86 41.76 72.04 83.02 24.4 83.02"/><path class="cls-2" d="M62.26,10.17a2.4,2.4,0,1,1,4.76,0,2.4,2.4,0,1,1-4.76,0Zm3.86,0c0-1.13-.55-2-1.48-2s-1.48.84-1.48,2,.55,2,1.49,2S66.12,11.31,66.12,10.17Z"/><path class="cls-2" d="M68.14,11.68a3.18,3.18,0,0,0,1.52.42c1.18,0,1.56-.75,1.56-1.33,0-1-.88-1.37-1.78-1.37h-.52V8.7h.52c.68,0,1.53-.35,1.53-1.16,0-.55-.35-1-1.2-1A2.49,2.49,0,0,0,68.39,7l-.25-.68A3.29,3.29,0,0,1,70,5.75c1.35,0,2,.8,2,1.64A1.72,1.72,0,0,1,70.64,9V9a1.78,1.78,0,0,1,1.54,1.75c0,1.1-.87,2.07-2.51,2.07a3.53,3.53,0,0,1-1.79-.47Z"/><path class="cls-3" d="M48.39,66.54c0-.36-.42-3.58-.59-7.85.1-.59.28-1.22.64-1.37.57-.23,1.29.13,2,.67h0A4,4,0,1,0,53,50.91a3.4,3.4,0,0,0-2.51.86h0c-.7.67-1.44,1.08-2,.84-.35-.15-.54-.77-.64-1.35.17-4.21.57-7.37.63-7.78-.11,0-3.74.47-8.53.62a1.07,1.07,0,0,1-.7-.49c-.24-.57.13-1.29.67-2h0a3.93,3.93,0,0,0,.91-2.55,4,4,0,1,0-7.94,0,3.42,3.42,0,0,0,.89,2.5h0c.34.7,1.05,1.44.81,2a1.17,1.17,0,0,1-.73.49c-4.59-.16-8.11-.6-8.46-.65,0,.07.05,22.74,0,23.1Z"/><path class="cls-4" d="M49.11,20.25h0s-.52,4-.64,9.22a.54.54,0,0,0,.27.23c.57.24,1.29-.14,2-.68h0a4,4,0,1,1,2.55,7,3.51,3.51,0,0,1-2.51-1h0c-.7-.33-1.43-1-2-.75-.11.05-.17.17-.25.28.15,5,.67,8.73.67,8.73v0S53,43.87,58,44a.76.76,0,0,0,.37-.36c.24-.57-.14-1.29-.68-2h0a3.92,3.92,0,0,1-.93-2.54,4,4,0,0,1,4-4,4,4,0,0,1,4,4,5.84,5.84,0,0,1-.85,2.51h0c-.67.7-1.09,1.43-.85,2a.76.76,0,0,0,.38.37c5-.16,8.83-.7,8.83-.7v-23l-24-.06"/><path class="cls-3" d="M72.23,66.48V43.68c-.34.06-3.54.46-7.69.64-.62-.09-1.28-.27-1.45-.65-.24-.57.13-1.29.67-2h0a4,4,0,1,0-7.08-2.55,3.36,3.36,0,0,0,.84,2.5h0c.67.7,1.09,1.45.85,2-.16.38-.84.59-1.46.68-4.43-.2-7.68-.62-7.68-.62h0a.84.84,0,0,1,0-.12c-.08.6-.54,4.13-.69,8.69a.79.79,0,0,0,.36.38c.57.24,1.29-.13,2-.67h0a4,4,0,1,1,2.55,7,3.45,3.45,0,0,1-2.51-.92h0c-.7-.67-1.43-1-2-.77a.86.86,0,0,0-.37.42c.15,4.59.7,8.72.7,8.72h23Z"/><path class="cls-3" d="M25.49,43.36v0s4.13.55,8.71.69a.78.78,0,0,0,.42-.37c.24-.56-.1-1.3-.77-2h0a3.44,3.44,0,0,1-.92-2.5,4,4,0,1,1,7,2.55h0c-.54.69-.91,1.41-.67,2a.76.76,0,0,0,.39.35c4.56-.15,8.09-.6,8.69-.68h-.13v0s-.42-3.24-.62-7.68c.1-.62.3-1.3.68-1.46.57-.24,1.32.19,2,.85h0a3.39,3.39,0,0,0,2.51.85,4,4,0,1,0-2.56-7.09h0c-.69.54-1.41.91-2,.67-.38-.16-.57-.83-.66-1.45.18-4.15.59-7.35.65-7.68H25.49Z"/><rect class="cls-5" x="58.72" y="27.19" width="10.43" height="1.99"/><rect class="cls-5" x="62.94" y="22.97" width="1.99" height="10.43"/><polygon class="cls-6" points="24.4 83.02 0.58 41.76 24.4 0.5 72.04 0.5 95.86 41.76 72.04 83.02 24.4 83.02"/><path class="cls-7" d="M62.26,10.17a2.4,2.4,0,1,1,4.76,0,2.4,2.4,0,1,1-4.76,0Zm3.86,0c0-1.13-.55-2-1.48-2s-1.48.84-1.48,2,.55,2,1.49,2S66.12,11.31,66.12,10.17Z"/><path class="cls-7" d="M68.14,11.68a3.18,3.18,0,0,0,1.52.42c1.18,0,1.56-.75,1.56-1.33,0-1-.88-1.37-1.78-1.37h-.52V8.7h.52c.68,0,1.53-.35,1.53-1.16,0-.55-.35-1-1.2-1A2.49,2.49,0,0,0,68.39,7l-.25-.68A3.29,3.29,0,0,1,70,5.75c1.35,0,2,.8,2,1.64A1.72,1.72,0,0,1,70.64,9V9a1.78,1.78,0,0,1,1.54,1.75c0,1.1-.87,2.07-2.51,2.07a3.53,3.53,0,0,1-1.79-.47Z"/></g><g id="Layer_12" data-name="Layer 12"><text class="cls-8" transform="translate(25.49 45.82)">追加機能</text></g></g></svg>