<svg xmlns="http://www.w3.org/2000/svg" xmlns:xlink="http://www.w3.org/1999/xlink" viewBox="0 0 96.44 83.51"><defs><style>.cls-1,.cls-6{stroke:#fff;}.cls-1,.cls-3,.cls-4,.cls-6{stroke-miterlimit:10;}.cls-1{fill:url(#linear-gradient);}.cls-2{fill:#393e46;}.cls-3,.cls-5{fill:#4e4e4e;}.cls-3,.cls-4{stroke:#4e4e4e;stroke-width:1.5px;}.cls-4{fill:none;}.cls-6{fill:#222a31;opacity:0.3;}.cls-7,.cls-8{fill:#fff;}.cls-8{font-size:12px;font-family:KozGoPr6N-Regular-90ms-RKSJ-H, Kozuka Gothic Pr6N;letter-spacing:-0.13em;}.cls-9{letter-spacing:-0.1em;}.cls-10{letter-spacing:-0.17em;}.cls-11{letter-spacing:0em;}</style><linearGradient id="linear-gradient" x1="0.58" y1="41.76" x2="95.86" y2="41.76" gradientUnits="userSpaceOnUse"><stop offset="0" stop-color="#fbfcfc"/><stop offset="0.41" stop-color="#f5f6f6"/><stop offset="0.96" stop-color="#e5e4e4"/><stop offset="1" stop-color="#e4e3e3"/></linearGradient></defs><g id="Layer_2" data-name="Layer 2"><g id="Layer_20" data-name="Layer 20"><polygon class="cls-1" points="24.4 83.02 0.58 41.76 24.4 0.5 72.04 0.5 95.86 41.76 72.04 83.02 24.4 83.02"/><path class="cls-2" d="M61.59,9.8a2.39,2.39,0,1,1,4.75,0,2.39,2.39,0,1,1-4.75,0Zm3.86,0c0-1.13-.55-2-1.49-2s-1.48.84-1.48,2,.55,2,1.5,2S65.45,10.94,65.45,9.8Z"/><path class="cls-2" d="M70.12,12.37V10.49h-3.2V9.88L70,5.49h1V9.77h1v.72H71v1.88Zm0-2.6V7.47q0-.54,0-1.08h0c-.22.41-.38.7-.58,1L67.86,9.75v0Z"/><path class="cls-3" d="M50.15,23.65A5.64,5.64,0,0,1,54,25.08a6.17,6.17,0,0,1,1.94,3.47l0,.27.13-.25a4.3,4.3,0,0,1,3-2.19,4.52,4.52,0,0,1,.74-.06,4.13,4.13,0,0,1,2.76,1.06l.08.06.06-.07A9,9,0,0,1,69,24.25h.49A6.43,6.43,0,0,1,75.3,27.4a4.38,4.38,0,0,1,.12,3.71,3.48,3.48,0,0,1-2.29,2,2.78,2.78,0,0,1-.81.11,3.28,3.28,0,0,1-2.25-.89,2.63,2.63,0,0,1-.8-2.54,2.28,2.28,0,0,1,1-1.45,1.78,1.78,0,0,1,1-.28,1.82,1.82,0,0,1,.46.06,1.51,1.51,0,0,1,1,.86,1.49,1.49,0,0,1,0,1.32l-.1.18.2,0a.82.82,0,0,0,.66-.63,1.94,1.94,0,0,0-.53-1.73,2.51,2.51,0,0,0-1.72-.64,2.69,2.69,0,0,0-.4,0A2.64,2.64,0,0,0,69,28.61,3.2,3.2,0,0,0,68.51,31a3.8,3.8,0,0,0,3.17,2.93,5.46,5.46,0,0,0,.57,0,4,4,0,0,0,3.39-2L76,31.9a6.33,6.33,0,0,1,2,5.09,6.16,6.16,0,0,1-2.68,4.64l-.43.28a15.79,15.79,0,0,0-4.07-5.59,14,14,0,0,0-2.9-1.91A10.92,10.92,0,0,0,66,33.7a7.32,7.32,0,0,0-1-.21l-.4,0a1.65,1.65,0,0,0-.72.12l-.27.13.3.05A13.25,13.25,0,0,1,74.8,46.52,14.16,14.16,0,0,1,72.15,55a15.44,15.44,0,0,1-7,5.5,16.61,16.61,0,0,1-5.92,1.07,17.57,17.57,0,0,1-4.9-.69l-.08,0,0,.07a5.26,5.26,0,0,1-4.68,3h-.1C46,63.91,45.1,60.64,45,60.12c2.23-1.09,3.52-3.18,4.78-5.2a27,27,0,0,1,1.75-2.61c2-2.57,4.08-3.18,5.55-3.18a5.46,5.46,0,0,1,1.65.26A5.37,5.37,0,0,1,62,52.46a3.82,3.82,0,0,1-.2,3.33A3.22,3.22,0,0,1,59,57.46a2.81,2.81,0,0,1-.49-.05,2.58,2.58,0,0,1-2.18-2.29,2.44,2.44,0,0,1,.74-2,1.51,1.51,0,0,1,1-.42l.32,0a1.23,1.23,0,0,1,1,1,1.09,1.09,0,0,1-.13.62,1.17,1.17,0,0,1-.22.29l-.18.12a.27.27,0,0,0-.18.19.25.25,0,0,0,.07.28.3.3,0,0,0,.2.08.2.2,0,0,0,.1,0A1.48,1.48,0,0,0,60,54a1.94,1.94,0,0,0-1.11-1.82,2.15,2.15,0,0,0-.86-.19,2.22,2.22,0,0,0-.87.18,2.76,2.76,0,0,0-1.51,1.53,3.33,3.33,0,0,0,3.23,4.46,4.71,4.71,0,0,0,.53,0,4,4,0,0,0,2.83-1.87,4.74,4.74,0,0,0,.46-3.94A6.12,6.12,0,0,0,57,48.38H56.9c-2.35,0-4.46,1.25-6.1,3.62-.43.62-.83,1.27-1.22,1.9a19.7,19.7,0,0,1-2.68,3.7A14.18,14.18,0,0,1,37,61.75a13.33,13.33,0,0,1-2-.15c-4.49-.7-9.18-6.45-8.17-5.57A9.88,9.88,0,0,0,33,58.78h.4a9,9,0,0,0,7.92-6.38v-.06l0,0a2.82,2.82,0,0,1,1.83-5h.19l.32,0-.26-.2a4.27,4.27,0,0,1,2.15-7.78h.1v-.1A7.23,7.23,0,0,1,49.32,32a6.46,6.46,0,0,1,2.84-.67A5.8,5.8,0,0,1,57,33.83a5.72,5.72,0,0,1,.83,4.36,4.54,4.54,0,0,1-2.15,2.94,4.17,4.17,0,0,1-2.1.57,3.81,3.81,0,0,1-1.91-.5,3.56,3.56,0,0,1-1.77-3.27,3.11,3.11,0,0,1,2.64-2.84h.19a2.13,2.13,0,0,1,1.67.78,1.57,1.57,0,0,1,.25,1.53l-.1.29.25-.18a1,1,0,0,0,.38-.66,1.91,1.91,0,0,0-.32-1.29,3,3,0,0,0-1.41-1,2.73,2.73,0,0,0-.94-.16,3.26,3.26,0,0,0-2.07.77,3.54,3.54,0,0,0-1.26,2.72,4.36,4.36,0,0,0,1.48,3.31,4.51,4.51,0,0,0,3,1.1,4.63,4.63,0,0,0,3-1.12,5.86,5.86,0,0,0,1.46-6.27,6.32,6.32,0,0,0-5.63-4.17.11.11,0,0,1-.08,0l0,0-.06,0h-.07a8.67,8.67,0,0,0-5.81,2.9c-.15.15-.26.27-.3.27l-.07-.06a5.86,5.86,0,0,1,4.08-10.15m0-1a6.86,6.86,0,0,0-4.77,11.86h0l.07.07a8.69,8.69,0,0,0-.92,3.87,5.41,5.41,0,0,0-4,4.18,5.31,5.31,0,0,0,.91,3.94,3.82,3.82,0,0,0-1.85,1.68,4,4,0,0,0,.53,4.35,8,8,0,0,1-6.86,5.17H33a8.94,8.94,0,0,1-5.51-2.51,17.36,17.36,0,0,1-2.14-2.23,1,1,0,0,0-.78-.37,1,1,0,0,0-.52.15,1,1,0,0,0-.38,1.26,15.06,15.06,0,0,0,11.19,8.49,13.83,13.83,0,0,0,2.14.17,15.11,15.11,0,0,0,7.21-1.86A5.53,5.53,0,0,0,49.4,65h.12A6.26,6.26,0,0,0,54.73,62a18.44,18.44,0,0,0,4.48.55,17.36,17.36,0,0,0,6.28-1.14A16.56,16.56,0,0,0,73,55.58a15.37,15.37,0,0,0,2.83-9.07,14.14,14.14,0,0,0-.57-3.69l.13-.07.45-.3a7.14,7.14,0,0,0,3.11-5.39,7.32,7.32,0,0,0-2.26-5.88,1,1,0,0,0-.16-.12A5.39,5.39,0,0,0,76.18,27a7.37,7.37,0,0,0-6.74-3.71l-.55,0a10,10,0,0,0-6.34,2.85,5.13,5.13,0,0,0-2.72-.79,4.7,4.7,0,0,0-.92.09,5.17,5.17,0,0,0-2.58,1.25,7.35,7.35,0,0,0-1.72-2.32,6.62,6.62,0,0,0-4.46-1.69"/><polyline class="cls-4" points="44.6 37.46 36.25 37.46 32.89 34.11 27.03 34.11 21.64 34.11"/><polyline class="cls-4" points="46.02 35.78 41.84 35.78 33.09 27.03 27.89 27.03"/><polyline class="cls-4" points="43.35 40.08 31.85 40.08 28 43.92 23.53 43.92"/><line class="cls-4" x1="41.54" y1="43.81" x2="34.97" y2="43.81"/><polyline class="cls-4" points="41.54 47.85 36.39 47.85 34.21 50.03 31.81 50.03"/><polyline class="cls-4" points="44.6 31.45 41.54 31.45 29.69 19.6 21.64 19.6"/><path class="cls-5" d="M24.77,19.6a2.71,2.71,0,1,1-2.71-2.71A2.71,2.71,0,0,1,24.77,19.6Z"/><path class="cls-5" d="M30.6,27a2.71,2.71,0,1,1-2.71-2.71A2.71,2.71,0,0,1,30.6,27Z"/><path class="cls-5" d="M24.35,34.11a2.71,2.71,0,1,1-2.71-2.71A2.7,2.7,0,0,1,24.35,34.11Z"/><path class="cls-5" d="M27.06,43.92a2.71,2.71,0,1,1-2.71-2.7A2.71,2.71,0,0,1,27.06,43.92Z"/><path class="cls-5" d="M33.2,50a2.71,2.71,0,1,1-2.7-2.7A2.7,2.7,0,0,1,33.2,50Z"/><path class="cls-5" d="M26.24,52.74A2.71,2.71,0,1,1,23.53,50,2.71,2.71,0,0,1,26.24,52.74Z"/><path class="cls-5" d="M37.68,43.81A2.71,2.71,0,1,1,35,41.11,2.71,2.71,0,0,1,37.68,43.81Z"/><polygon class="cls-6" points="24.4 83.02 0.58 41.76 24.4 0.5 72.04 0.5 95.86 41.76 72.04 83.02 24.4 83.02"/><path class="cls-7" d="M61.59,9.8a2.39,2.39,0,1,1,4.75,0,2.39,2.39,0,1,1-4.75,0Zm3.86,0c0-1.13-.55-2-1.49-2s-1.48.84-1.48,2,.55,2,1.5,2S65.45,10.94,65.45,9.8Z"/><path class="cls-7" d="M70.12,12.37V10.49h-3.2V9.88L70,5.49h1V9.77h1v.72H71v1.88Zm0-2.6V7.47q0-.54,0-1.08h0c-.22.41-.38.7-.58,1L67.86,9.75v0Z"/></g><g id="Layer_12" data-name="Layer 12"><text class="cls-8" transform="translate(28.06 45.92)">ク<tspan class="cls-9" x="10.44" y="0">ラ</tspan><tspan class="cls-10" x="21.24" y="0">ウ</tspan><tspan class="cls-11" x="31.21" y="0">ド</tspan></text></g></g></svg>