<svg xmlns="http://www.w3.org/2000/svg" xmlns:xlink="http://www.w3.org/1999/xlink" viewBox="0 0 96.44 83.52"><defs><style>.cls-1,.cls-3{stroke:#fff;stroke-miterlimit:10;}.cls-1{fill:url(#linear-gradient);}.cls-2{fill:#393e46;}.cls-3{fill:#222a31;opacity:0.3;}.cls-4,.cls-5{fill:#fff;}.cls-5{font-size:14px;font-family:KozGoPr6N-Regular-90ms-RKSJ-H, Kozuka Gothic Pr6N;}</style><linearGradient id="linear-gradient" x1="0.58" y1="41.76" x2="95.86" y2="41.76" gradientUnits="userSpaceOnUse"><stop offset="0" stop-color="#fbfcfc"/><stop offset="0.41" stop-color="#f5f6f6"/><stop offset="0.96" stop-color="#e5e4e4"/><stop offset="1" stop-color="#e4e3e3"/></linearGradient></defs><g id="Layer_2" data-name="Layer 2"><g id="Layer_22" data-name="Layer 22"><polygon class="cls-1" points="24.4 83.02 0.58 41.76 24.4 0.5 72.04 0.5 95.86 41.76 72.04 83.02 24.4 83.02"/><path class="cls-2" d="M61.83,10.17a2.4,2.4,0,1,1,4.76,0,2.4,2.4,0,1,1-4.76,0Zm3.86,0c0-1.13-.55-2-1.48-2s-1.48.84-1.48,2,.55,2,1.49,2S65.69,11.31,65.69,10.17Z"/><path class="cls-2" d="M71.59,6.65H69L68.7,8.41a4.17,4.17,0,0,1,.56,0,2.81,2.81,0,0,1,1.48.37,2,2,0,0,1,1,1.76,2.38,2.38,0,0,1-2.55,2.35,3.41,3.41,0,0,1-1.72-.43l.23-.71a3.12,3.12,0,0,0,1.49.38,1.5,1.5,0,0,0,1.61-1.49c0-.88-.6-1.51-2-1.51a6.15,6.15,0,0,0-1,.07l.45-3.3h3.29Z"/><path class="cls-2" d="M48.39,37.19,32.26,50.5V67.32H64.52V50.55Zm-.24,23.72h-6V55.32h6Zm0-6.32h-6V49h6Zm6.76,6.32h-6V55.32h6Zm0-6.32h-6V49h6Z"/><path class="cls-2" d="M48.4,13.3,14.78,40.79l3.72,4.52,8.13-6.69v21.9h3.23v-12L48.4,33.2,66.92,48.56v12H70V38.84l7.86,6.47,3.72-4.52Z"/><polygon class="cls-3" points="24.4 83.02 0.58 41.76 24.4 0.5 72.04 0.5 95.86 41.76 72.04 83.02 24.4 83.02"/><path class="cls-4" d="M61.83,10.17a2.4,2.4,0,1,1,4.76,0,2.4,2.4,0,1,1-4.76,0Zm3.86,0c0-1.13-.55-2-1.48-2s-1.48.84-1.48,2,.55,2,1.49,2S65.69,11.31,65.69,10.17Z"/><path class="cls-4" d="M71.59,6.65H69L68.7,8.41a4.17,4.17,0,0,1,.56,0,2.81,2.81,0,0,1,1.48.37,2,2,0,0,1,1,1.76,2.38,2.38,0,0,1-2.55,2.35,3.41,3.41,0,0,1-1.72-.43l.23-.71a3.12,3.12,0,0,0,1.49.38,1.5,1.5,0,0,0,1.61-1.49c0-.88-.6-1.51-2-1.51a6.15,6.15,0,0,0-1,.07l.45-3.3h3.29Z"/></g><g id="Layer_12" data-name="Layer 12"><text class="cls-5" transform="translate(29.56 44.92)">拡張性</text></g></g></svg>